<svg width="120" height="28" viewBox="0 0 120 28" fill="none" xmlns="http://www.w3.org/2000/svg"><path d="M8.85776 0.252336C10.9386 0.252336 12.562 0.65287 13.7279 1.45394C14.8938 2.25501 15.4767 3.4526 15.4767 5.04673C15.4767 5.85581 15.2581 6.58077 14.8209 7.22163C14.3918 7.85447 13.7643 8.33111 12.9385 8.65154C13.9991 8.87583 14.7926 9.35648 15.3189 10.0935C15.8532 10.8304 16.1204 11.6836 16.1204 12.6529C16.1204 14.3271 15.5618 15.5968 14.4444 16.4619C13.3271 17.3191 11.7442 17.7477 9.69576 17.7477H1V15.6449L2.88246 15.2844V2.72764L1 2.36716V0.252336H8.85776ZM6.42878 10.0093V15.0561H9.69576C10.635 15.0561 11.3515 14.8558 11.8454 14.4553C12.3393 14.0467 12.5862 13.4459 12.5862 12.6529C12.5862 11.7957 12.3757 11.1429 11.9547 10.6943C11.5337 10.2377 10.8698 10.0093 9.96295 10.0093H6.42878ZM6.42878 7.58211H8.97921C9.92651 7.58211 10.6552 7.38985 11.1653 7.00534C11.6754 6.62083 11.9304 6.06008 11.9304 5.3231C11.9304 4.51402 11.6713 3.91722 11.1531 3.53271C10.6431 3.1482 9.87793 2.95594 8.85776 2.95594H6.42878V7.58211Z" fill="white"></path><path d="M17.262 15.6449L18.5251 15.4646L23.9053 0.252336H27.5366L32.8804 15.4646L34.1435 15.6449V17.7477H28.1196V15.6449L29.3462 15.4286L28.569 13.0254H22.8366L22.0593 15.4286L23.2859 15.6449V17.7477H17.262V15.6449ZM23.6746 10.4419H27.731L25.7392 4.2777H25.6663L23.6746 10.4419Z" fill="white"></path><path d="M49.0817 6.1522H46.4463L46.0819 3.82109C45.7338 3.47664 45.2925 3.20427 44.7581 3.00401C44.2319 2.80374 43.6084 2.7036 42.8878 2.7036C41.3495 2.7036 40.1633 3.25634 39.3294 4.36182C38.5035 5.46729 38.0906 6.90921 38.0906 8.68758V9.3004C38.0906 11.0788 38.5035 12.5247 39.3294 13.6382C40.1552 14.7517 41.3211 15.3084 42.8271 15.3084C43.5234 15.3084 44.159 15.2083 44.7338 15.008C45.3168 14.8077 45.7662 14.5354 46.0819 14.1909L46.4463 11.8598H49.0817V15.3204C48.3692 16.1375 47.4583 16.7904 46.3491 17.279C45.248 17.7597 44.0132 18 42.6449 18C40.2726 18 38.3294 17.1869 36.8154 15.5607C35.3013 13.9346 34.5443 11.8478 34.5443 9.3004V8.71162C34.5443 6.17223 35.2972 4.08545 36.8032 2.45127C38.3092 0.817089 40.2564 0 42.6449 0C44.0132 0 45.248 0.248331 46.3491 0.744993C47.4503 1.23364 48.3611 1.88251 49.0817 2.69159V6.1522Z" fill="white"></path><path d="M50.7213 15.6449L52.6037 15.2844V2.72764L50.7213 2.36716V0.252336H57.9475V2.36716L56.1501 2.72764V7.40187H57.6925L61.093 2.51135L60.0486 2.36716V0.252336H67.0562V2.36716L65.1373 2.69159L60.7894 8.43525L65.6717 15.3445L67.4448 15.6449V17.7477H60.4372V15.6449L61.5303 15.5007L58.1297 10.4419H56.1501V15.2844L57.9475 15.6449V17.7477H50.7213V15.6449Z" fill="white"></path><path d="M79.9177 10.0574H73.9302V15.0561H79.6383L79.7962 12.9653H82.4924V17.7477H68.5014V15.6449L70.3839 15.2844V2.72764L68.5014 2.36716V0.252336H82.4681V5.04673H79.7476L79.5897 2.95594H73.9302V7.3538H79.9177V10.0574Z" fill="white"></path><path d="M102.459 0.252336V2.36716L100.564 2.72764V17.7477H97.0298L89.8886 5.97196L89.8158 5.98398V15.2844L91.7104 15.6449V17.7477H84.387V15.6449L86.2695 15.2844V2.72764L84.387 2.36716V0.252336H89.8158L96.957 12.028L97.0298 12.016V2.72764L95.1352 2.36716V0.252336H102.459Z" fill="white"></path><path d="M111.555 0.252336C113.717 0.252336 115.498 0.93725 116.899 2.30708C118.3 3.66889 119 5.41923 119 7.55808V10.4539C119 12.6008 118.3 14.3551 116.899 15.717C115.498 17.0708 113.717 17.7477 111.555 17.7477H103.6V15.6449L105.483 15.2844V2.72764L103.6 2.36716V0.252336H111.555ZM109.029 2.95594V15.0561H111.373C112.644 15.0561 113.64 14.6315 114.361 13.7824C115.081 12.9332 115.442 11.8238 115.442 10.4539V7.53405C115.442 6.18024 115.081 5.07877 114.361 4.22964C113.64 3.38051 112.644 2.95594 111.373 2.95594H109.029Z" fill="white"></path><path d="M52.2148 24.0469C52.2148 24.6562 52.0677 25.1484 51.7734 25.5234C51.4818 25.8958 51.0794 26.082 50.5664 26.082C50.2904 26.082 50.0508 26.0299 49.8477 25.9258C49.6445 25.819 49.4753 25.6628 49.3398 25.457L49.2695 26H48.6055V20.5117L47.9688 20.4023V19.9062H49.375V22.2734C49.5078 22.0859 49.6719 21.9427 49.8672 21.8438C50.0651 21.7448 50.2956 21.6953 50.5586 21.6953C51.0794 21.6953 51.4857 21.9036 51.7773 22.3203C52.069 22.737 52.2148 23.2852 52.2148 23.9648V24.0469ZM51.4414 23.9648C51.4414 23.4779 51.3529 23.082 51.1758 22.7773C50.9987 22.4727 50.7279 22.3203 50.3633 22.3203C50.1263 22.3203 49.9258 22.3776 49.7617 22.4922C49.6003 22.6068 49.4714 22.7604 49.375 22.9531V24.8203C49.4714 25.0156 49.6016 25.1706 49.7656 25.2852C49.9323 25.3997 50.1341 25.457 50.3711 25.457C50.7331 25.457 51.0013 25.3281 51.1758 25.0703C51.3529 24.8125 51.4414 24.4714 51.4414 24.0469V23.9648Z" fill="white"></path><path d="M58.5492 22.2695L58.1703 22.3281L56.5609 26.6484C56.4542 26.9323 56.3005 27.1797 56.1 27.3906C55.8995 27.6016 55.6299 27.707 55.2914 27.707C55.2315 27.707 55.1534 27.6992 55.057 27.6836C54.9607 27.6706 54.8865 27.6576 54.8344 27.6445L54.9125 27.0391C54.8969 27.0365 54.9424 27.0391 55.0492 27.0469C55.1586 27.0547 55.2276 27.0586 55.2562 27.0586C55.4203 27.0586 55.5531 26.987 55.6547 26.8438C55.7562 26.7031 55.8448 26.5404 55.9203 26.3555L56.1039 25.918L54.7094 22.332L54.3227 22.2695V21.7734H56.0297V22.2695L55.5531 22.3477L56.2836 24.4336L56.4242 24.9727H56.4477L57.3266 22.3477L56.8461 22.2695V21.7734H58.5492V22.2695Z" fill="white"></path><path d="M64.1125 25.5078L64.7492 25.3984V22.3789L64.1125 22.2695V21.7734H65.4406L65.4914 22.3242C65.6268 22.1237 65.8013 21.9688 66.0148 21.8594C66.2284 21.75 66.4758 21.6953 66.757 21.6953C67.0383 21.6953 67.2792 21.7604 67.4797 21.8906C67.6828 22.0208 67.8352 22.2161 67.9367 22.4766C68.0695 22.237 68.2453 22.0469 68.4641 21.9062C68.6828 21.7656 68.938 21.6953 69.2297 21.6953C69.662 21.6953 70.0031 21.8438 70.2531 22.1406C70.5031 22.4349 70.6281 22.8789 70.6281 23.4727V25.3984L71.2648 25.5078V26H69.218V25.5078L69.8547 25.3984V23.4648C69.8547 23.0482 69.7831 22.7539 69.6398 22.582C69.4966 22.4076 69.2844 22.3203 69.0031 22.3203C68.7349 22.3203 68.5187 22.4154 68.3547 22.6055C68.1932 22.793 68.0995 23.0299 68.0734 23.3164V25.3984L68.7102 25.5078V26H66.6672V25.5078L67.3039 25.3984V23.4648C67.3039 23.069 67.2297 22.7799 67.0812 22.5977C66.9354 22.4128 66.7232 22.3203 66.4445 22.3203C66.2102 22.3203 66.0174 22.3685 65.8664 22.4648C65.7154 22.5612 65.5995 22.6966 65.5187 22.8711V25.3984L66.1555 25.5078V26H64.1125V25.5078Z" fill="white"></path><path d="M76.1852 26C76.1617 25.8854 76.1435 25.7826 76.1305 25.6914C76.1174 25.6003 76.1083 25.5091 76.1031 25.418C75.9547 25.6081 75.7685 25.7669 75.5445 25.8945C75.3232 26.0195 75.0862 26.082 74.8336 26.082C74.3935 26.082 74.0589 25.9753 73.8297 25.7617C73.6005 25.5456 73.4859 25.2422 73.4859 24.8516C73.4859 24.4505 73.6474 24.1419 73.9703 23.9258C74.2958 23.707 74.7411 23.5977 75.3062 23.5977H76.0992V23.1055C76.0992 22.8581 76.0211 22.6628 75.8648 22.5195C75.7086 22.3737 75.4911 22.3008 75.2125 22.3008C75.0198 22.3008 74.8492 22.3255 74.7008 22.375C74.5549 22.4245 74.4365 22.4922 74.3453 22.5781L74.2633 23.0234H73.6695V22.2031C73.8622 22.0495 74.0953 21.9271 74.3687 21.8359C74.6422 21.7422 74.9391 21.6953 75.2594 21.6953C75.7385 21.6953 76.1266 21.8177 76.4234 22.0625C76.7203 22.3073 76.8687 22.6576 76.8687 23.1133V25.1484C76.8687 25.2031 76.8687 25.2565 76.8687 25.3086C76.8714 25.3607 76.8753 25.4128 76.8805 25.4648L77.193 25.5078V26H76.1852ZM74.9469 25.4375C75.2021 25.4375 75.4352 25.3763 75.6461 25.2539C75.857 25.1315 76.0081 24.9844 76.0992 24.8125V24.1172H75.2789C74.9638 24.1172 74.7138 24.1901 74.5289 24.3359C74.3466 24.4818 74.2555 24.6589 74.2555 24.8672C74.2555 25.0521 74.3128 25.194 74.4273 25.293C74.5419 25.3893 74.7151 25.4375 74.9469 25.4375Z" fill="white"></path><path d="M80.8203 22.2695L80.3125 22.3477L81.1836 24.7539L81.2539 25.0586H81.2773L81.3516 24.7539L82.1953 22.3477L81.6836 22.2695V21.7734H83.3164V22.2695L82.9688 22.3281L81.5508 26H80.9688L79.5352 22.3281L79.1875 22.2695V21.7734H80.8203V22.2695Z" fill="white"></path><path d="M87.3148 26.082C86.7263 26.082 86.2576 25.8867 85.9086 25.4961C85.5622 25.1029 85.3891 24.5938 85.3891 23.9688V23.7969C85.3891 23.1953 85.5674 22.6953 85.9242 22.2969C86.2836 21.8958 86.7081 21.6953 87.1977 21.6953C87.7654 21.6953 88.1951 21.8672 88.4867 22.2109C88.781 22.5547 88.9281 23.013 88.9281 23.5859V24.0664H86.1859L86.1742 24.0859C86.182 24.4922 86.2849 24.8268 86.4828 25.0898C86.6807 25.3503 86.9581 25.4805 87.3148 25.4805C87.5753 25.4805 87.8031 25.444 87.9984 25.3711C88.1964 25.2956 88.3669 25.1927 88.5102 25.0625L88.8109 25.5625C88.6599 25.7083 88.4594 25.832 88.2094 25.9336C87.962 26.0326 87.6638 26.082 87.3148 26.082ZM87.1977 22.3008C86.9398 22.3008 86.7198 22.4102 86.5375 22.6289C86.3552 22.8451 86.2432 23.1172 86.2016 23.4453L86.2094 23.4648H88.1586V23.3633C88.1586 23.0612 88.0779 22.8086 87.9164 22.6055C87.7549 22.4023 87.5154 22.3008 87.1977 22.3008Z" fill="white"></path><path d="M91.1766 25.5078L91.8133 25.3984V22.3789L91.1766 22.2695V21.7734H92.5008L92.5555 22.4023C92.6961 22.1784 92.8719 22.0052 93.0828 21.8828C93.2964 21.7578 93.5385 21.6953 93.8094 21.6953C94.2651 21.6953 94.618 21.8294 94.868 22.0977C95.118 22.3633 95.243 22.7747 95.243 23.332V25.3984L95.8797 25.5078V26H93.8367V25.5078L94.4734 25.3984V23.3477C94.4734 22.9753 94.3992 22.7109 94.2508 22.5547C94.1049 22.3984 93.881 22.3203 93.5789 22.3203C93.3576 22.3203 93.1609 22.3737 92.9891 22.4805C92.8198 22.5872 92.6844 22.7331 92.5828 22.918V25.3984L93.2195 25.5078V26H91.1766V25.5078Z" fill="white"></path><path d="M98.0031 23.9648C98.0031 23.2852 98.1516 22.737 98.4484 22.3203C98.7453 21.9036 99.1555 21.6953 99.6789 21.6953C99.9445 21.6953 100.178 21.7474 100.378 21.8516C100.579 21.9557 100.747 22.1068 100.882 22.3047L100.952 21.7734H101.601V25.9453C101.601 26.4922 101.448 26.9219 101.144 27.2344C100.839 27.5495 100.405 27.707 99.843 27.707C99.6398 27.707 99.4198 27.6784 99.1828 27.6211C98.9458 27.5664 98.7375 27.4909 98.5578 27.3945L98.757 26.7969C98.9003 26.8724 99.0695 26.9349 99.2648 26.9844C99.4602 27.0339 99.6503 27.0586 99.8352 27.0586C100.179 27.0586 100.43 26.9622 100.589 26.7695C100.751 26.5768 100.831 26.3021 100.831 25.9453V25.543C100.693 25.7201 100.528 25.8542 100.335 25.9453C100.142 26.0365 99.9211 26.082 99.6711 26.082C99.1529 26.082 98.7453 25.8945 98.4484 25.5195C98.1516 25.1445 98.0031 24.6536 98.0031 24.0469V23.9648ZM98.7727 24.0469C98.7727 24.4714 98.8625 24.8125 99.0422 25.0703C99.2219 25.3281 99.4953 25.457 99.8625 25.457C100.094 25.457 100.288 25.4049 100.445 25.3008C100.601 25.194 100.73 25.0443 100.831 24.8516V22.9062C100.732 22.7266 100.603 22.5846 100.445 22.4805C100.286 22.3737 100.094 22.3203 99.8703 22.3203C99.5031 22.3203 99.2284 22.474 99.0461 22.7812C98.8638 23.0885 98.7727 23.4831 98.7727 23.9648V24.0469Z" fill="white"></path><path d="M106.06 26.082C105.472 26.082 105.003 25.8867 104.654 25.4961C104.308 25.1029 104.134 24.5938 104.134 23.9688V23.7969C104.134 23.1953 104.313 22.6953 104.67 22.2969C105.029 21.8958 105.453 21.6953 105.943 21.6953C106.511 21.6953 106.94 21.8672 107.232 22.2109C107.526 22.5547 107.673 23.013 107.673 23.5859V24.0664H104.931L104.92 24.0859C104.927 24.4922 105.03 24.8268 105.228 25.0898C105.426 25.3503 105.703 25.4805 106.06 25.4805C106.321 25.4805 106.548 25.444 106.744 25.3711C106.942 25.2956 107.112 25.1927 107.255 25.0625L107.556 25.5625C107.405 25.7083 107.205 25.832 106.955 25.9336C106.707 26.0326 106.409 26.082 106.06 26.082ZM105.943 22.3008C105.685 22.3008 105.465 22.4102 105.283 22.6289C105.101 22.8451 104.989 23.1172 104.947 23.4453L104.955 23.4648H106.904V23.3633C106.904 23.0612 106.823 22.8086 106.662 22.6055C106.5 22.4023 106.261 22.3008 105.943 22.3008Z" fill="white"></path><path d="M110.035 22.2695V21.7734H111.359L111.434 22.3867C111.553 22.1706 111.701 22.0013 111.875 21.8789C112.052 21.7565 112.254 21.6953 112.48 21.6953C112.54 21.6953 112.602 21.7005 112.664 21.7109C112.729 21.7188 112.779 21.7279 112.812 21.7383L112.711 22.4531L112.273 22.4297C112.07 22.4297 111.9 22.4779 111.762 22.5742C111.624 22.668 111.517 22.8008 111.441 22.9727V25.3984L112.078 25.5078V26H110.035V25.5078L110.672 25.3984V22.3789L110.035 22.2695Z" fill="white"></path><path d="M118.182 23.1016H117.604L117.479 22.5938C117.385 22.5052 117.267 22.4349 117.123 22.3828C116.983 22.3281 116.823 22.3008 116.643 22.3008C116.37 22.3008 116.166 22.3607 116.034 22.4805C115.901 22.6003 115.834 22.7448 115.834 22.9141C115.834 23.0807 115.893 23.2122 116.01 23.3086C116.127 23.4049 116.366 23.4909 116.725 23.5664C117.259 23.681 117.656 23.8372 117.916 24.0352C118.177 24.2305 118.307 24.4935 118.307 24.8242C118.307 25.1992 118.155 25.5026 117.85 25.7344C117.548 25.9661 117.152 26.082 116.662 26.082C116.342 26.082 116.054 26.0456 115.799 25.9727C115.544 25.8971 115.316 25.7891 115.116 25.6484L115.112 24.6836H115.69L115.834 25.25C115.923 25.3307 116.043 25.3893 116.194 25.4258C116.347 25.4622 116.504 25.4805 116.662 25.4805C116.936 25.4805 117.149 25.4258 117.303 25.3164C117.459 25.2044 117.537 25.0586 117.537 24.8789C117.537 24.7096 117.472 24.5703 117.342 24.4609C117.215 24.3516 116.971 24.2565 116.612 24.1758C116.099 24.0638 115.712 23.9115 115.452 23.7188C115.191 23.526 115.061 23.2656 115.061 22.9375C115.061 22.5938 115.207 22.3008 115.498 22.0586C115.793 21.8164 116.174 21.6953 116.643 21.6953C116.963 21.6953 117.251 21.737 117.506 21.8203C117.761 21.9036 117.974 22.0195 118.143 22.168L118.182 23.1016Z" fill="white"></path></svg>
