<svg width="143" height="116" viewBox="0 0 143 116" fill="none" xmlns="http://www.w3.org/2000/svg">
<rect width="143" height="116" fill="white"/>
<path d="M102.014 55.6212C102.014 61.2885 100.337 66.8285 97.1932 71.5407C94.0497 76.2529 89.5817 79.9255 84.3543 82.0943C79.1269 84.2631 73.3748 84.8306 67.8254 83.7249C62.276 82.6193 57.1786 79.8902 53.1777 75.8829C49.1768 71.8755 46.4522 66.7698 45.3483 61.2114C44.2445 55.653 44.811 49.8916 46.9763 44.6557C49.1415 39.4198 52.8083 34.9446 57.5128 31.796C62.2174 28.6474 67.7484 26.9669 73.4066 26.9669C80.9938 26.9669 88.2704 29.9858 93.6354 35.3595C99.0004 40.7333 102.014 48.0216 102.014 55.6212Z" fill="#20BFD4"/>
<path d="M110.721 47.2117C110.721 52.879 109.043 58.419 105.9 63.1312C102.756 67.8433 98.2885 71.516 93.0611 73.6848C87.8337 75.8536 82.0816 76.421 76.5322 75.3154C70.9828 74.2098 65.8853 71.4807 61.8844 67.4733C57.8836 63.466 55.1589 58.3602 54.0551 52.8019C52.9512 47.2435 53.5178 41.482 55.683 36.2462C57.8483 31.0103 61.515 26.5351 66.2196 23.3865C70.9241 20.2379 76.4552 18.5574 82.1133 18.5574C89.7006 18.5574 96.9771 21.5763 102.342 26.95C107.707 32.3238 110.721 39.6121 110.721 47.2117Z" fill="#71CEE6"/>
<path d="M102.205 40.8325C103.667 25.0762 92.1002 11.116 76.3695 9.65159C60.6387 8.18715 46.7011 19.773 45.239 35.5293C43.777 51.2855 55.3441 65.2457 71.0748 66.7101C86.8056 68.1746 100.743 56.5887 102.205 40.8325Z" fill="#20BFD4"/>
<path d="M93.9296 47.8348C93.9296 53.502 92.2518 59.0421 89.1083 63.7542C85.9648 68.4664 81.4968 72.1391 76.2694 74.3079C71.042 76.4767 65.2899 77.0441 59.7405 75.9385C54.1911 74.8328 49.0937 72.1038 45.0928 68.0964C41.0919 64.089 38.3673 58.9833 37.2634 53.4249C36.1596 47.8665 36.7261 42.1051 38.8914 36.8692C41.0566 31.6333 44.7234 27.1581 49.4279 24.0096C54.1325 20.861 59.6635 19.1805 65.3217 19.1805C72.9089 19.1805 80.1855 22.1994 85.5505 27.5731C90.9155 32.9468 93.9296 40.2352 93.9296 47.8348Z" fill="#71CEE6"/>
<path d="M97.404 47.5232C97.404 52.0297 96.0699 56.4351 93.5703 60.1822C91.0707 63.9293 87.518 66.8499 83.3613 68.5747C79.2046 70.2994 74.6306 70.7509 70.2178 69.872C65.8049 68.9932 61.7513 66.8234 58.5696 63.6371C55.3879 60.4507 53.2208 56.391 52.3426 51.9711C51.4643 47.5513 51.9142 42.9698 53.6355 38.8061C55.3567 34.6423 58.2719 31.0833 62.0125 28.579C65.7531 26.0747 70.1511 24.7376 74.6503 24.7368C77.6382 24.7362 80.5969 25.3252 83.3575 26.4701C86.118 27.615 88.6264 29.2933 90.7393 31.4093C92.8523 33.5252 94.5284 36.0374 95.6719 38.8022C96.8154 41.5671 97.404 44.5305 97.404 47.5232Z" fill="white"/>
<path d="M46.4798 39.5187C50.9713 39.5187 54.6124 35.8718 54.6124 31.373C54.6124 26.8743 50.9713 23.2273 46.4798 23.2273C41.9883 23.2273 38.3473 26.8743 38.3473 31.373C38.3473 35.8718 41.9883 39.5187 46.4798 39.5187Z" fill="#71CEE6"/>
<path d="M45.2837 48.8169C45.2837 50.4284 44.8065 52.0038 43.9126 53.3437C43.0187 54.6837 41.7481 55.728 40.2616 56.3446C38.775 56.9613 37.1393 57.1225 35.5613 56.8079C33.9833 56.4934 32.5339 55.7172 31.3963 54.5775C30.2587 53.4378 29.4842 51.9858 29.1705 50.4051C28.8569 48.8245 29.0183 47.1862 29.6343 45.6974C30.2503 44.2086 31.2932 42.9363 32.6312 42.0412C33.9692 41.1462 35.5422 40.6687 37.1511 40.6691C38.2193 40.6691 39.277 40.8798 40.2638 41.2893C41.2506 41.6988 42.1472 42.299 42.9024 43.0556C43.6576 43.8122 44.2566 44.7105 44.6652 45.699C45.0738 46.6875 45.2839 47.747 45.2837 48.8169Z" fill="#71CEE6"/>
<path d="M33.7783 33.8647C33.7787 34.8602 33.4844 35.8336 32.9325 36.6615C32.3806 37.4895 31.5959 38.1349 30.6777 38.5162C29.7596 38.8975 28.7491 38.9975 27.7742 38.8035C26.7993 38.6095 25.9038 38.1303 25.2008 37.4265C24.4978 36.7227 24.019 35.8258 23.8249 34.8494C23.6309 33.873 23.7303 32.8609 24.1106 31.9411C24.4908 31.0213 25.1349 30.2351 25.9613 29.6819C26.7877 29.1288 27.7593 28.8336 28.7533 28.8336C30.0857 28.8336 31.3635 29.3636 32.3058 30.307C33.2481 31.2505 33.7778 32.5301 33.7783 33.8647Z" fill="#71CEE6"/>
<path d="M27.5571 55.046C27.5571 56.0411 27.2626 57.0138 26.7106 57.8412C26.1587 58.6685 25.3742 59.3134 24.4564 59.6942C23.5386 60.075 22.5286 60.1746 21.5542 59.9805C20.5799 59.7864 19.6849 59.3072 18.9824 58.6036C18.2799 57.9 17.8015 57.0035 17.6077 56.0276C17.4139 55.0516 17.5134 54.04 17.8936 53.1207C18.2737 52.2014 18.9175 51.4156 19.7436 50.8628C20.5696 50.31 21.5407 50.0149 22.5342 50.0149C23.8664 50.0149 25.144 50.545 26.086 51.4885C27.0279 52.432 27.5571 53.7117 27.5571 55.046Z" fill="#71CEE6"/>
<path d="M21.6014 41.9648C21.6014 42.5197 21.437 43.0621 21.1292 43.5235C20.8214 43.9848 20.3838 44.3444 19.872 44.5566C19.3601 44.7689 18.7969 44.8243 18.2535 44.7159C17.7102 44.6075 17.2112 44.3401 16.8196 43.9476C16.428 43.5551 16.1614 43.0551 16.0536 42.5108C15.9457 41.9665 16.0015 41.4024 16.2138 40.8898C16.4261 40.3773 16.7854 39.9393 17.2462 39.6313C17.7071 39.3233 18.2487 39.1591 18.8027 39.1595C19.5452 39.1601 20.257 39.4559 20.7818 39.9819C21.3066 40.5079 21.6014 41.2211 21.6014 41.9648Z" fill="#71CEE6"/>
<path fill-rule="evenodd" clip-rule="evenodd" d="M66.8681 30.2746C67.2828 30.5508 67.714 30.8186 68.4312 30.7958C69.6315 39.3319 68.6137 50.0917 68.9516 59.4937C65.5456 57.2782 66.8681 51.3563 66.8681 46.4497V30.2746Z" fill="#306869"/>
<path fill-rule="evenodd" clip-rule="evenodd" d="M69.9922 32.8825C70.8339 32.7372 70.8898 33.3767 71.5553 33.4058C72.7577 41.7674 71.7398 52.3529 72.0777 61.5825C68.5017 59.8259 69.9922 53.632 69.9922 49.0577V32.8825Z" fill="#306869"/>
<path fill-rule="evenodd" clip-rule="evenodd" d="M72.5981 34.9714C73.4397 34.824 73.4957 35.4635 74.1611 35.4926C75.3594 43.3352 74.3456 53.3953 74.6815 62.1037C80.2787 61.4102 86.2117 56.1943 91.3508 58.4514C86.1599 60.907 80.43 62.8201 74.1611 64.1905C71.6072 61.2836 72.5981 56.1466 72.5981 51.1466V34.9714Z" fill="#306869"/>
<path fill-rule="evenodd" clip-rule="evenodd" d="M85.6209 53.7544C82.9736 55.4529 79.1447 55.9637 76.2445 57.4068C74.698 53.9206 83.3799 51.8545 85.6209 53.7544Z" fill="#306869"/>
<path fill-rule="evenodd" clip-rule="evenodd" d="M88.2266 56.8856C83.4587 57.4961 80.432 59.8632 75.7242 60.538C76.3937 55.8183 83.3757 57.4234 86.1412 54.7988C87.4638 54.8611 88.1589 55.5567 88.2266 56.8856Z" fill="#306869"/>
<path d="M19 101.021C19 97.5224 21.3094 93 27.4373 93C32.5245 93 35.69 95.9672 35.69 100.654C35.69 105.34 32.4208 109.042 27.232 109.042C21.3695 109.042 19 104.642 19 101.021ZM32.8292 101.409C32.8292 96.8268 30.1944 93.9821 26.8444 93.9821C24.4956 93.9821 21.8193 95.2923 21.8193 100.388C21.8193 104.642 24.1681 108.019 28.0903 108.019C29.5207 108.019 32.8292 107.323 32.8292 101.409Z" fill="#20BFD4"/>
<path d="M40.0393 107.099C38.2627 105.606 37.7921 103.642 37.7921 101.964C37.7929 101.065 37.9805 100.176 38.3431 99.3538C38.7058 98.5316 39.2354 97.794 39.8984 97.1881C41.2044 96.0419 42.9208 95.3463 45.5971 95.3463C46.4717 95.3454 47.3453 95.4065 48.2112 95.529C48.885 95.6329 49.4779 95.7554 50.0086 95.8156C50.2159 95.8364 50.2739 95.9194 50.2739 96.0232C50.2739 96.1665 50.2345 96.37 50.1931 96.9846C50.1516 97.5577 50.1516 98.5191 50.1309 98.8679C50.1122 99.1129 50.05 99.2977 49.8862 99.2977C49.7225 99.2977 49.7038 99.1544 49.7038 98.9281C49.6792 98.3219 49.431 97.7463 49.0073 97.3127C48.3957 96.7188 47.1892 96.289 45.5349 96.289C43.9615 96.289 42.9623 96.5756 42.1455 97.2711C40.8167 98.4173 40.4871 100.095 40.4871 101.794C40.4871 105.926 43.6754 107.89 46.0843 107.89C47.6785 107.89 48.5574 107.767 49.2726 106.97C49.5695 106.636 49.7827 106.236 49.8945 105.803C49.936 105.537 49.9775 105.456 50.1205 105.456C50.2635 105.456 50.3278 105.618 50.3278 105.762C50.2514 106.544 50.1149 107.319 49.9194 108.081C49.9024 108.204 49.8482 108.319 49.7641 108.41C49.68 108.502 49.57 108.565 49.4488 108.592C48.7336 108.878 47.3654 108.982 46.2004 108.982C43.7583 108.982 41.6749 108.469 40.0393 107.099Z" fill="#20BFD4"/>
<path d="M54.1546 100.633C54.1546 97.9938 54.1546 97.5017 54.1338 96.9494C54.0945 96.3576 53.9265 96.1728 53.3585 96.0087C53.1231 95.9617 52.8833 95.9409 52.6433 95.9464C52.4588 95.9464 52.3365 95.8862 52.3365 95.7637C52.3365 95.6412 52.4796 95.5997 52.7511 95.5997C53.6923 95.5997 54.8345 95.6412 55.3466 95.6412C55.9187 95.6412 59.9073 95.6599 60.2493 95.6412C60.5024 95.6193 60.7543 95.5847 61.0039 95.5374C61.0976 95.5047 61.1931 95.4777 61.29 95.4564C61.3936 95.4564 61.4123 95.5374 61.4123 95.6205C61.3373 95.9916 61.2894 96.3677 61.2692 96.7459C61.2506 96.9286 61.2091 97.6865 61.1677 97.892C61.1469 97.973 61.1075 98.1786 60.9604 98.1786C60.8132 98.1786 60.8173 98.0955 60.8173 97.9522C60.8175 97.7386 60.776 97.527 60.695 97.3293C60.552 97.022 60.4089 96.777 59.5092 96.6939C59.2024 96.6545 57.0568 96.613 56.6899 96.613C56.609 96.613 56.5676 96.6732 56.5676 96.777V101.073C56.5676 101.175 56.5883 101.258 56.6899 101.258C57.1045 101.258 59.4284 101.258 59.8368 101.216C60.2452 101.175 60.5312 101.135 60.695 100.951C60.8381 100.828 60.9023 100.724 60.979 100.724C61.0007 100.727 61.0216 100.734 61.0406 100.744C61.0596 100.755 61.0764 100.769 61.0898 100.787C61.1033 100.804 61.1133 100.823 61.1192 100.844C61.125 100.865 61.1267 100.887 61.1241 100.909C61.1241 101.011 61.0827 101.297 60.979 102.178C60.9396 102.527 60.8982 103.216 60.8982 103.345C60.8982 103.473 60.8774 103.733 60.7137 103.733C60.5914 103.733 60.552 103.671 60.552 103.59C60.5312 103.405 60.5312 103.174 60.4898 102.954C60.3882 102.608 60.1622 102.331 59.4885 102.279C59.163 102.24 57.119 102.198 56.6692 102.198C56.5883 102.198 56.5676 102.279 56.5676 102.383V103.774C56.5676 104.368 56.5469 105.851 56.5676 106.351C56.6091 107.539 57.1605 107.805 58.9993 107.805C59.4678 107.805 60.2244 107.784 60.695 107.581C61.1656 107.377 61.348 107.007 61.4703 106.291C61.5118 106.106 61.5512 106.025 61.6776 106.025C61.8041 106.025 61.8393 106.25 61.8393 106.441C61.8104 107.087 61.7286 107.73 61.5947 108.363C61.4724 108.814 61.3086 108.814 60.6349 108.814C59.2874 108.814 58.2032 108.793 57.318 108.752C56.4328 108.71 55.7653 108.712 55.245 108.712C55.0377 108.712 54.6521 108.731 54.223 108.731C53.7939 108.731 53.344 108.772 52.9792 108.772C52.7532 108.772 52.6309 108.712 52.6309 108.588C52.6309 108.507 52.6931 108.405 52.917 108.405C53.1302 108.41 53.3432 108.389 53.5513 108.343C53.9182 108.262 54.0198 107.927 54.082 107.423C54.1629 106.686 54.1629 105.315 54.1629 103.718L54.1546 100.633Z" fill="#20BFD4"/>
<path d="M66.6964 104.377C66.5948 104.377 66.5741 104.397 66.5327 104.501L65.5728 106.833C65.4238 107.169 65.334 107.529 65.3075 107.896C65.3075 108.203 65.4713 108.388 66.0227 108.388H66.2963C66.5223 108.388 66.5617 108.469 66.5617 108.571C66.5617 108.714 66.4601 108.756 66.2756 108.756C65.6848 108.756 64.8452 108.696 64.2751 108.696C64.0906 108.696 63.1308 108.756 62.2021 108.756C61.9761 108.756 61.8745 108.714 61.8745 108.571C61.8745 108.469 61.9347 108.388 62.0818 108.388C62.229 108.388 62.4508 108.368 62.6146 108.368C63.4314 108.245 63.7382 107.713 64.1051 106.833L68.784 95.8863C68.9913 95.3942 69.1322 95.1907 69.3167 95.1907C69.5821 95.1907 69.6629 95.3547 69.8474 95.743C70.2766 96.7044 73.2783 103.824 74.4226 106.463C75.1171 108.039 75.6291 108.266 75.9546 108.332C76.1772 108.371 76.4025 108.392 76.6284 108.395C76.7921 108.395 76.875 108.455 76.875 108.577C76.875 108.7 76.7714 108.762 76.0977 108.762C75.4654 108.762 74.1573 108.762 72.646 108.721C72.3185 108.702 72.1153 108.702 72.1153 108.577C72.1153 108.453 72.1547 108.415 72.3392 108.395C72.3777 108.383 72.4132 108.362 72.443 108.335C72.4729 108.308 72.4965 108.275 72.5121 108.238C72.5277 108.2 72.535 108.16 72.5334 108.12C72.5318 108.08 72.5215 108.04 72.503 108.004L71.1141 104.507C71.103 104.468 71.0784 104.434 71.0446 104.411C71.0108 104.388 70.9701 104.378 70.9296 104.383L66.6964 104.377ZM70.5378 103.419C70.6186 103.419 70.6393 103.38 70.6186 103.318L68.9229 98.8991C68.9042 98.8368 68.8835 98.7351 68.842 98.7351C68.8006 98.7351 68.7591 98.8368 68.7404 98.8991L67.0032 103.297C66.9618 103.38 67.0032 103.419 67.0654 103.419H70.5378Z" fill="#20BFD4"/>
<path d="M79.9535 106.382C79.995 107.732 80.2189 108.143 80.5754 108.266C80.8802 108.355 81.197 108.396 81.5145 108.388C81.7218 108.388 81.8213 108.469 81.8213 108.571C81.8213 108.714 81.6576 108.756 81.4067 108.756C80.2417 108.756 79.4042 108.696 79.0766 108.696C78.9149 108.696 78.0567 108.756 77.1363 108.756C76.8916 108.756 76.7216 108.735 76.7216 108.571C76.7216 108.469 76.844 108.388 77.0077 108.388C77.2822 108.392 77.5563 108.364 77.8245 108.305C78.2951 108.183 78.3573 107.713 78.3759 106.198L78.5397 95.8863C78.5397 95.5374 78.662 95.2924 78.8465 95.2924C79.0704 95.2924 79.3171 95.5582 79.6239 95.8655C79.8478 96.0918 82.5448 98.8534 85.1589 101.409C86.3841 102.618 88.7743 105.072 89.0396 105.319H89.1226L88.9381 97.5848C88.9173 96.5196 88.7536 96.2123 88.3162 96.0503C88.0107 95.9657 87.6936 95.9307 87.3771 95.9465C87.1532 95.9465 87.091 95.8655 87.091 95.7638C87.091 95.6205 87.2755 95.5997 87.5408 95.5997C88.4799 95.5997 89.4397 95.6413 89.8212 95.6413C90.0285 95.6413 90.6981 95.5997 91.577 95.5997C91.8217 95.5997 91.9917 95.6205 91.9917 95.7638C91.9917 95.8655 91.8901 95.9465 91.6848 95.9465C91.4989 95.9387 91.3129 95.9597 91.1334 96.0088C90.6442 96.1521 90.5011 96.4594 90.4804 97.4415L90.2731 108.409C90.2731 108.797 90.1301 108.961 89.987 108.961C89.8463 108.952 89.709 108.914 89.583 108.85C89.457 108.787 89.3449 108.699 89.2532 108.592C88.1296 107.554 85.8824 105.4 84.0022 103.579C82.0411 101.698 80.1422 99.5885 79.7939 99.2833H79.7338L79.9535 106.382Z" fill="#20BFD4"/>
<path d="M98.9716 102.821C98.9716 105.442 98.9716 106.854 99.4007 107.221C99.7469 107.529 100.28 107.672 101.872 107.672C102.954 107.672 103.752 107.651 104.262 107.099C104.544 106.744 104.728 106.321 104.793 105.872C104.813 105.687 104.855 105.564 105.019 105.564C105.182 105.564 105.182 105.666 105.182 105.911C105.138 106.702 105.036 107.489 104.876 108.266C104.753 108.714 104.65 108.818 103.588 108.818C102.116 108.818 101.055 108.776 100.137 108.756C99.2183 108.735 98.4782 108.696 97.649 108.696C97.4251 108.696 96.9752 108.696 96.486 108.714C95.9968 108.733 95.4847 108.756 95.0763 108.756C94.811 108.756 94.6617 108.696 94.6617 108.548C94.6617 108.444 94.7426 108.384 94.9872 108.384C95.2348 108.384 95.4817 108.356 95.7231 108.301C96.1377 108.22 96.2331 107.769 96.316 107.176C96.4176 106.316 96.4176 104.701 96.4176 102.815V99.2209C96.4176 96.1063 96.4176 95.5374 96.3761 94.8833C96.3367 94.1877 96.1688 93.8596 95.4992 93.7164C95.2775 93.672 95.0516 93.6518 94.8255 93.6561C94.5995 93.6561 94.4772 93.6146 94.4772 93.4714C94.4772 93.3281 94.6203 93.2886 94.9271 93.2886C95.8869 93.2886 97.1743 93.3488 97.7257 93.3488C98.2149 93.3488 99.7075 93.2886 100.504 93.2886C100.79 93.2886 100.933 93.3281 100.933 93.4714C100.933 93.6146 100.81 93.6561 100.566 93.6561C100.299 93.6573 100.032 93.6774 99.7676 93.7164C99.2162 93.8202 99.0524 94.167 99.013 94.8833C98.9716 95.5374 98.9716 96.1105 98.9716 99.2209V102.821Z" fill="#306869"/>
<path d="M108.367 100.633C108.367 97.9938 108.367 97.5017 108.348 96.9494C108.307 96.3576 108.122 96.152 107.726 96.0295C107.514 95.9702 107.294 95.9422 107.073 95.9465C106.889 95.9465 106.787 95.907 106.787 95.7389C106.787 95.6371 106.93 95.5956 107.216 95.5956C107.89 95.5956 109.115 95.6371 109.625 95.6371C110.075 95.6371 111.24 95.5956 111.934 95.5956C112.158 95.5956 112.301 95.6371 112.301 95.7389C112.301 95.9029 112.2 95.9465 112.015 95.9465C111.837 95.948 111.659 95.9689 111.484 96.0088C110.995 96.0918 110.863 96.3369 110.811 96.9494C110.769 97.5017 110.769 97.9876 110.769 100.633V103.702C110.769 105.38 110.769 106.771 110.852 107.508C110.912 107.979 111.035 108.245 111.567 108.326C111.872 108.368 112.179 108.389 112.486 108.388C112.693 108.388 112.772 108.49 112.772 108.571C112.772 108.696 112.629 108.756 112.424 108.756C111.24 108.756 110.015 108.696 109.521 108.696C109.107 108.696 107.888 108.756 107.173 108.756C106.949 108.756 106.824 108.696 106.824 108.571C106.824 108.49 106.886 108.388 107.11 108.388C107.324 108.393 107.537 108.372 107.745 108.326C108.112 108.245 108.213 107.998 108.275 107.495C108.356 106.779 108.356 105.388 108.356 103.71L108.367 100.633Z" fill="#306869"/>
<path d="M119.092 103.764C119.092 105.442 119.113 106.671 119.194 107.406C119.256 107.917 119.379 108.237 119.909 108.326C120.2 108.367 120.494 108.388 120.788 108.388C121.012 108.388 121.093 108.49 121.093 108.571C121.093 108.696 120.971 108.756 120.705 108.756C119.561 108.756 118.294 108.696 117.826 108.696C117.357 108.696 116.211 108.756 115.546 108.756C115.301 108.756 115.179 108.714 115.179 108.571C115.179 108.49 115.239 108.388 115.444 108.388C115.656 108.393 115.869 108.372 116.076 108.326C116.445 108.245 116.547 107.911 116.609 107.406C116.69 106.669 116.69 105.38 116.69 103.702V100.633C116.69 97.9938 116.69 97.5017 116.669 96.9494C116.628 96.3576 116.462 96.152 115.894 96.0087C115.658 95.9617 115.419 95.9409 115.179 95.9464C115.015 95.9464 114.872 95.8862 114.872 95.7637C114.872 95.6412 115.015 95.5997 115.301 95.5997C116.219 95.5997 117.364 95.6412 117.874 95.6412C118.57 95.6412 122.552 95.6599 122.982 95.6412C123.229 95.6322 123.475 95.6044 123.717 95.5582C123.819 95.5374 123.9 95.4564 124.004 95.4564C124.064 95.4564 124.126 95.5374 124.126 95.6205C124.126 95.743 124.043 95.9464 123.983 96.397C123.962 96.5818 123.921 97.6055 123.9 97.809C123.881 97.9522 123.84 98.1578 123.717 98.1578C123.595 98.1578 123.491 98.0748 123.491 97.8713C123.511 97.6476 123.476 97.4224 123.39 97.2151C123.268 96.9701 122.919 96.7043 122.246 96.6836L119.265 96.6234C119.161 96.6234 119.101 96.6628 119.101 96.8684V101.083C119.101 101.185 119.122 101.247 119.223 101.247L121.736 101.227C122.042 101.227 122.287 101.227 122.552 101.206C122.88 101.185 123.145 101.125 123.309 100.899C123.411 100.797 123.452 100.714 123.554 100.714C123.616 100.714 123.655 100.776 123.655 100.878C123.655 100.98 123.574 101.451 123.512 102.003C123.471 102.352 123.452 103.149 123.452 103.272C123.452 103.394 123.431 103.66 123.245 103.66C123.143 103.66 123.081 103.538 123.081 103.415C123.071 103.232 123.03 103.052 122.959 102.884C122.898 102.703 122.783 102.546 122.629 102.435C122.475 102.323 122.29 102.262 122.1 102.261C121.653 102.219 119.528 102.198 119.221 102.198C119.138 102.198 119.099 102.219 119.099 102.342L119.092 103.764Z" fill="#306869"/>
<path d="M127.866 100.633C127.866 97.9937 127.866 97.5016 127.845 96.9493C127.803 96.3575 127.638 96.1727 127.07 96.0087C126.834 95.9617 126.594 95.9408 126.354 95.9464C126.17 95.9464 126.048 95.8862 126.048 95.7637C126.048 95.6412 126.191 95.5996 126.462 95.5996C127.401 95.5996 128.546 95.6412 129.056 95.6412C129.628 95.6412 133.616 95.6599 133.958 95.6412C134.209 95.6164 134.459 95.579 134.707 95.529C134.8 95.4961 134.896 95.4691 134.993 95.4481C135.094 95.4481 135.115 95.529 135.115 95.6121C135.04 95.9832 134.992 96.3594 134.972 96.7375C134.951 96.9202 134.912 97.6781 134.87 97.8837C134.85 97.9647 134.808 98.1702 134.663 98.1702C134.518 98.1702 134.52 98.0872 134.52 97.9439C134.52 97.7302 134.479 97.5186 134.398 97.321C134.255 97.0137 134.112 96.7687 133.214 96.6856C132.907 96.6461 130.762 96.6046 130.395 96.6046C130.312 96.6046 130.272 96.6648 130.272 96.7686V101.065C130.272 101.166 130.291 101.25 130.395 101.25C130.809 101.25 133.131 101.25 133.54 101.208C133.948 101.166 134.234 101.127 134.398 100.942C134.541 100.82 134.605 100.716 134.684 100.716C134.763 100.716 134.827 100.799 134.827 100.901C134.827 101.002 134.785 101.289 134.684 102.169C134.642 102.518 134.603 103.208 134.603 103.336C134.603 103.465 134.582 103.725 134.418 103.725C134.296 103.725 134.255 103.662 134.255 103.581C134.234 103.397 134.234 103.166 134.195 102.946C134.091 102.599 133.867 102.323 133.193 102.271C132.866 102.232 130.824 102.19 130.374 102.19C130.291 102.19 130.272 102.271 130.272 102.375V103.766C130.272 104.36 130.252 105.843 130.272 106.343C130.312 107.531 130.863 107.796 132.702 107.796C133.173 107.796 133.929 107.776 134.398 107.572C134.866 107.369 135.053 106.999 135.175 106.283C135.215 106.098 135.256 106.017 135.382 106.017C135.509 106.017 135.546 106.241 135.546 106.432C135.517 107.079 135.435 107.722 135.302 108.355C135.179 108.806 135.016 108.806 134.342 108.806C132.992 108.806 131.91 108.785 131.025 108.743C130.14 108.702 129.472 108.704 128.942 108.704C128.734 108.704 128.349 108.722 127.92 108.722C127.49 108.722 127.043 108.764 126.676 108.764C126.452 108.764 126.329 108.704 126.329 108.579C126.329 108.498 126.39 108.396 126.616 108.396C126.825 108.401 127.033 108.38 127.237 108.334C127.606 108.253 127.708 107.919 127.768 107.414C127.851 106.677 127.851 105.307 127.851 103.71L127.866 100.633Z" fill="#306869"/>
</svg>
