<svg width="224" height="198" viewBox="0 0 224 198" fill="none" xmlns="http://www.w3.org/2000/svg">
<path d="M168.598 93.4492C168.598 104.342 165.373 114.99 159.331 124.046C153.289 133.103 144.702 140.162 134.655 144.33C124.608 148.499 113.553 149.589 102.887 147.464C92.221 145.339 82.4237 140.094 74.7341 132.392C67.0444 124.69 61.8077 114.877 59.6862 104.193C57.5646 93.5103 58.6535 82.437 62.8151 72.3737C66.9767 62.3104 74.0241 53.7091 83.0662 47.6576C92.1083 41.6061 102.739 38.3761 113.614 38.3761C128.196 38.3761 142.182 44.1784 152.493 54.5066C162.805 64.8349 168.598 78.8429 168.598 93.4492Z" fill="#20BFD4"/>
<path d="M185.332 77.2865C185.332 88.1789 182.107 98.8267 176.065 107.883C170.024 116.94 161.436 123.999 151.389 128.167C141.342 132.336 130.287 133.426 119.621 131.301C108.955 129.176 99.158 123.931 91.4683 116.229C83.7787 108.527 78.542 98.7138 76.4204 88.0307C74.2988 77.3475 75.3877 66.2742 79.5493 56.2109C83.7109 46.1476 90.7584 37.5463 99.8004 31.4948C108.842 25.4433 119.473 22.2133 130.348 22.2133C144.931 22.2133 158.916 28.0157 169.227 38.3439C179.539 48.6721 185.332 62.6801 185.332 77.2865Z" fill="#71CEE6"/>
<path d="M168.964 65.0255C171.774 34.7422 149.543 7.91099 119.308 5.09636C89.074 2.28173 62.2862 24.5495 59.4762 54.8328C56.6661 85.1162 78.8978 111.947 109.132 114.762C139.366 117.577 166.154 95.3088 168.964 65.0255Z" fill="#20BFD4"/>
<path d="M153.059 78.4837C153.059 89.3762 149.834 100.024 143.792 109.081C137.751 118.137 129.163 125.196 119.116 129.365C109.069 133.533 98.0137 134.624 87.3479 132.499C76.682 130.374 66.8848 125.128 59.1952 117.426C51.5055 109.724 46.2688 99.9111 44.1472 89.228C42.0257 78.5448 43.1145 67.4714 47.2761 57.4081C51.4377 47.3448 58.4852 38.7436 67.5272 32.6921C76.5693 26.6406 87.1999 23.4106 98.0747 23.4106C112.657 23.4106 126.643 29.2129 136.954 39.5411C147.266 49.8693 153.059 63.8774 153.059 78.4837Z" fill="#71CEE6"/>
<path d="M159.736 77.8852C159.736 86.5467 157.172 95.0137 152.368 102.216C147.564 109.417 140.736 115.031 132.747 118.346C124.757 121.661 115.966 122.529 107.485 120.839C99.0035 119.15 91.2126 114.98 85.0973 108.856C78.9821 102.732 74.8171 94.9289 73.1291 86.4341C71.4411 77.9392 72.3058 69.1337 75.614 61.131C78.9222 53.1284 84.5252 46.2879 91.7145 41.4747C98.9039 36.6615 107.357 34.0916 116.004 34.09C121.747 34.089 127.433 35.221 132.739 37.4214C138.045 39.6219 142.866 42.8476 146.927 46.9145C150.988 50.9814 154.21 55.8096 156.407 61.1236C158.605 66.4376 159.736 72.1332 159.736 77.8852V77.8852Z" fill="white"/>
<path d="M61.8609 62.5005C70.4935 62.5005 77.4915 55.4911 77.4915 46.8446C77.4915 38.1981 70.4935 31.1887 61.8609 31.1887C53.2284 31.1887 46.2303 38.1981 46.2303 46.8446C46.2303 55.4911 53.2284 62.5005 61.8609 62.5005Z" fill="#71CEE6"/>
<path d="M59.562 80.3714C59.562 83.4688 58.645 86.4966 56.9268 89.072C55.2087 91.6473 52.7667 93.6545 49.9096 94.8396C47.0525 96.0248 43.9087 96.3346 40.8758 95.7301C37.8429 95.1255 35.0571 93.6337 32.8707 91.4432C30.6843 89.2527 29.1956 86.462 28.5928 83.424C27.99 80.386 28.3002 77.2372 29.4841 74.3758C30.6681 71.5144 32.6726 69.0689 35.2442 67.3487C37.8158 65.6284 40.839 64.7106 43.9314 64.7114C45.9844 64.7114 48.0173 65.1165 49.9139 65.9036C51.8106 66.6906 53.5338 67.8441 54.9853 69.2984C56.4368 70.7526 57.5881 72.4789 58.3733 74.3789C59.1586 76.2788 59.5625 78.3151 59.562 80.3714V80.3714Z" fill="#71CEE6"/>
<path d="M37.4489 51.6336C37.4497 53.547 36.884 55.4178 35.8232 57.0091C34.7624 58.6005 33.2543 59.841 31.4896 60.5738C29.7249 61.3066 27.7829 61.4987 25.9091 61.1259C24.0354 60.7531 22.3141 59.8321 20.963 58.4793C19.6119 57.1266 18.6917 55.4029 18.3187 53.5263C17.9457 51.6497 18.1367 49.7044 18.8676 47.9365C19.5985 46.1687 20.8364 44.6576 22.4247 43.5945C24.0131 42.5313 25.8805 41.9639 27.7909 41.9639C30.3517 41.9639 32.8076 42.9825 34.6187 44.7958C36.4299 46.6091 37.4479 49.0687 37.4489 51.6336V51.6336Z" fill="#71CEE6"/>
<path d="M25.4919 92.3437C25.4919 94.2562 24.9257 96.1257 23.8649 97.7159C22.8041 99.3061 21.2963 100.545 19.5322 101.277C17.7682 102.009 15.8271 102.201 13.9544 101.828C12.0817 101.454 10.3615 100.534 9.01133 99.1812C7.66119 97.8289 6.74172 96.1059 6.36922 94.2301C5.99672 92.3544 6.1879 90.4101 6.91859 88.6432C7.64929 86.8763 8.88667 85.3661 10.4743 84.3036C12.0619 83.2411 13.9284 82.674 15.8378 82.674C18.3982 82.674 20.8538 83.6927 22.6643 85.5061C24.4747 87.3196 25.4919 89.7791 25.4919 92.3437V92.3437Z" fill="#71CEE6"/>
<path d="M14.0449 67.2018C14.0449 68.2683 13.7291 69.3108 13.1374 70.1976C12.5458 71.0843 11.7049 71.7754 10.721 72.1833C9.73722 72.5913 8.6547 72.6978 7.61042 72.4895C6.56614 72.2811 5.60702 71.7672 4.85437 71.0128C4.10172 70.2583 3.58937 69.2973 3.38212 68.2512C3.17487 67.205 3.28204 66.1208 3.69007 65.1357C4.09809 64.1506 4.78865 63.3088 5.67438 62.7169C6.56011 62.1249 7.60122 61.8094 8.66601 61.8102C10.0929 61.8112 11.4611 62.3797 12.4697 63.3907C13.4783 64.4017 14.0449 65.7725 14.0449 67.2018V67.2018Z" fill="#71CEE6"/>
<path fill-rule="evenodd" clip-rule="evenodd" d="M101.047 44.7335C101.844 45.2642 102.673 45.7791 104.051 45.7352C106.358 62.1414 104.402 82.8217 105.051 100.892C98.505 96.6339 101.047 85.2521 101.047 75.8218V44.7335V44.7335Z" fill="#306869"/>
<path fill-rule="evenodd" clip-rule="evenodd" d="M107.051 49.7459C108.669 49.4665 108.777 50.6957 110.056 50.7516C112.366 66.8226 110.41 87.1677 111.06 104.907C104.187 101.531 107.051 89.626 107.051 80.8343V49.7459V49.7459Z" fill="#306869"/>
<path fill-rule="evenodd" clip-rule="evenodd" d="M112.06 53.7606C113.678 53.4773 113.785 54.7064 115.064 54.7623C117.367 69.8356 115.419 89.171 116.064 105.908C126.822 104.576 138.225 94.5506 148.102 98.8887C138.125 103.608 127.113 107.285 115.064 109.919C110.155 104.332 112.06 94.4589 112.06 84.849V53.7606V53.7606Z" fill="#306869"/>
<path fill-rule="evenodd" clip-rule="evenodd" d="M137.089 89.8615C132.001 93.1259 124.642 94.1077 119.068 96.8813C116.096 90.1807 132.782 86.2099 137.089 89.8615Z" fill="#306869"/>
<path fill-rule="evenodd" clip-rule="evenodd" d="M142.098 95.8795C132.934 97.0528 127.117 101.602 118.068 102.899C119.355 93.8283 132.774 96.9132 138.089 91.8688C140.631 91.9885 141.968 93.3254 142.098 95.8795Z" fill="#306869"/>
<path d="M0 182.548C0 175.823 4.43856 167.131 16.2163 167.131C25.9939 167.131 32.078 172.834 32.078 181.842C32.078 190.849 25.7947 197.964 15.8218 197.964C4.55411 197.964 0 189.508 0 182.548ZM26.5796 183.294C26.5796 174.487 21.5155 169.019 15.0768 169.019C10.5625 169.019 5.41871 171.537 5.41871 181.331C5.41871 189.508 9.93298 195.997 17.4714 195.997C20.2206 195.997 26.5796 194.66 26.5796 183.294Z" fill="#20BFD4"/>
<path d="M40.4372 194.229C37.0226 191.36 36.1182 187.584 36.1182 184.36C36.1195 182.632 36.4802 180.924 37.1772 179.343C37.8741 177.763 38.8921 176.345 40.1663 175.181C42.6764 172.978 45.9754 171.641 51.1192 171.641C52.8002 171.639 54.4791 171.757 56.1435 171.992C57.4384 172.192 58.5779 172.427 59.5979 172.543C59.9963 172.583 60.1079 172.742 60.1079 172.942C60.1079 173.217 60.0322 173.608 59.9525 174.79C59.8728 175.891 59.8728 177.739 59.833 178.409C59.7971 178.88 59.6776 179.236 59.3628 179.236C59.0481 179.236 59.0122 178.96 59.0122 178.525C58.9648 177.36 58.4879 176.254 57.6735 175.42C56.4981 174.279 54.1792 173.453 50.9997 173.453C47.9756 173.453 46.0551 174.004 44.4853 175.34C41.9313 177.543 41.2978 180.768 41.2978 184.032C41.2978 191.974 47.4257 195.749 52.0555 195.749C55.1195 195.749 56.8089 195.514 58.1835 193.982C58.7541 193.34 59.1638 192.571 59.3788 191.739C59.4585 191.228 59.5382 191.072 59.8131 191.072C60.088 191.072 60.2115 191.384 60.2115 191.659C60.0646 193.163 59.8022 194.653 59.4266 196.117C59.394 196.353 59.2898 196.574 59.1281 196.75C58.9664 196.925 58.7549 197.047 58.5221 197.098C57.1475 197.649 54.5179 197.849 52.2787 197.849C47.5851 197.849 43.5808 196.863 40.4372 194.229Z" fill="#20BFD4"/>
<path d="M67.5665 181.802C67.5665 176.729 67.5665 175.783 67.5267 174.722C67.451 173.585 67.1283 173.229 66.0365 172.914C65.5841 172.824 65.1232 172.784 64.662 172.794C64.3073 172.794 64.0723 172.679 64.0723 172.443C64.0723 172.208 64.3472 172.128 64.8691 172.128C66.678 172.128 68.8734 172.208 69.8575 172.208C70.9572 172.208 78.6231 172.244 79.2805 172.208C79.767 172.166 80.251 172.099 80.7308 172.008C80.9108 171.945 81.0945 171.893 81.2807 171.853C81.4799 171.853 81.5157 172.008 81.5157 172.168C81.3715 172.881 81.2797 173.604 81.2408 174.331C81.205 174.682 81.1253 176.139 81.0456 176.534C81.0057 176.689 80.93 177.084 80.6472 177.084C80.3643 177.084 80.3722 176.925 80.3722 176.649C80.3727 176.239 80.2928 175.832 80.1372 175.452C79.8622 174.862 79.5873 174.391 77.8581 174.231C77.2684 174.155 73.1446 174.075 72.4394 174.075C72.284 174.075 72.2043 174.191 72.2043 174.391V182.648C72.2043 182.843 72.2442 183.003 72.4394 183.003C73.2363 183.003 77.7027 183.003 78.4876 182.923C79.2725 182.843 79.8224 182.767 80.1372 182.412C80.4121 182.177 80.5356 181.977 80.683 181.977C80.7246 181.982 80.7649 181.995 80.8014 182.016C80.8379 182.036 80.8701 182.064 80.896 182.097C80.9219 182.13 80.9411 182.168 80.9524 182.208C80.9637 182.248 80.9669 182.291 80.9619 182.332C80.9619 182.528 80.8822 183.079 80.683 184.771C80.6073 185.441 80.5276 186.766 80.5276 187.014C80.5276 187.261 80.4878 187.76 80.173 187.76C79.9379 187.76 79.8622 187.64 79.8622 187.485C79.8224 187.129 79.8224 186.686 79.7427 186.263C79.5475 185.597 79.1132 185.066 77.8183 184.966C77.1927 184.89 73.2642 184.811 72.3996 184.811C72.2442 184.811 72.2043 184.966 72.2043 185.166V187.84C72.2043 188.981 72.1645 191.83 72.2043 192.792C72.284 195.075 73.3438 195.586 76.878 195.586C77.7784 195.586 79.2327 195.546 80.1372 195.155C81.0416 194.764 81.3922 194.053 81.6273 192.677C81.707 192.321 81.7827 192.166 82.0257 192.166C82.2688 192.166 82.3365 192.597 82.3365 192.964C82.2809 194.207 82.1237 195.442 81.8664 196.659C81.6313 197.525 81.3165 197.525 80.0216 197.525C77.4318 197.525 75.348 197.485 73.6467 197.406C71.9453 197.326 70.6624 197.33 69.6623 197.33C69.2639 197.33 68.5228 197.366 67.698 197.366C66.8733 197.366 66.0087 197.446 65.3074 197.446C64.8731 197.446 64.638 197.33 64.638 197.09C64.638 196.935 64.7576 196.739 65.1879 196.739C65.5976 196.749 66.0071 196.709 66.4071 196.619C67.1123 196.464 67.3075 195.821 67.4271 194.852C67.5825 193.435 67.5825 190.801 67.5825 187.732L67.5665 181.802Z" fill="#20BFD4"/>
<path d="M91.6718 188.997C91.4765 188.997 91.4367 189.037 91.357 189.237L89.5122 193.718C89.2258 194.365 89.0533 195.056 89.0023 195.762C89.0023 196.352 89.317 196.707 90.3768 196.707H90.9028C91.3371 196.707 91.4128 196.863 91.4128 197.059C91.4128 197.334 91.2175 197.414 90.8629 197.414C89.7274 197.414 88.1137 197.298 87.018 197.298C86.6634 197.298 84.8187 197.414 83.0337 197.414C82.5994 197.414 82.4042 197.334 82.4042 197.059C82.4042 196.863 82.5197 196.707 82.8026 196.707C83.0855 196.707 83.5118 196.667 83.8266 196.667C85.3964 196.432 85.9861 195.41 86.6913 193.718L95.684 172.679C96.0824 171.733 96.3534 171.342 96.708 171.342C97.218 171.342 97.3734 171.657 97.728 172.403C98.5527 174.251 104.322 187.936 106.521 193.008C107.856 196.037 108.84 196.472 109.466 196.6C109.894 196.674 110.327 196.714 110.761 196.719C111.076 196.719 111.235 196.835 111.235 197.071C111.235 197.306 111.036 197.426 109.741 197.426C108.526 197.426 106.011 197.426 103.107 197.346C102.477 197.31 102.087 197.31 102.087 197.071C102.087 196.831 102.163 196.759 102.517 196.719C102.591 196.696 102.659 196.658 102.717 196.606C102.774 196.553 102.819 196.489 102.849 196.418C102.879 196.346 102.893 196.269 102.89 196.191C102.887 196.114 102.867 196.038 102.832 195.969L100.162 189.249C100.141 189.173 100.094 189.108 100.029 189.064C99.964 189.02 99.8856 189.001 99.8078 189.009L91.6718 188.997ZM99.0548 187.157C99.2101 187.157 99.25 187.082 99.2101 186.962L95.951 178.469C95.9151 178.35 95.8752 178.154 95.7956 178.154C95.7159 178.154 95.6362 178.35 95.6003 178.469L92.2614 186.922C92.1818 187.082 92.2614 187.157 92.381 187.157H99.0548Z" fill="#20BFD4"/>
<path d="M117.152 192.852C117.231 195.446 117.662 196.236 118.347 196.472C118.933 196.643 119.542 196.723 120.152 196.707C120.55 196.707 120.742 196.863 120.742 197.058C120.742 197.334 120.427 197.414 119.945 197.414C117.706 197.414 116.096 197.298 115.466 197.298C115.156 197.298 113.506 197.414 111.737 197.414C111.267 197.414 110.94 197.374 110.94 197.058C110.94 196.863 111.175 196.707 111.49 196.707C112.018 196.714 112.544 196.66 113.06 196.548C113.964 196.312 114.084 195.41 114.12 192.497L114.434 172.679C114.434 172.008 114.67 171.537 115.024 171.537C115.454 171.537 115.929 172.048 116.518 172.639C116.949 173.074 122.132 178.381 127.156 183.294C129.511 185.617 134.105 190.334 134.615 190.809H134.775L134.42 175.943C134.38 173.896 134.065 173.305 133.225 172.994C132.637 172.831 132.028 172.764 131.42 172.794C130.989 172.794 130.87 172.639 130.87 172.443C130.87 172.168 131.225 172.128 131.734 172.128C133.539 172.128 135.384 172.208 136.117 172.208C136.516 172.208 137.803 172.128 139.492 172.128C139.962 172.128 140.289 172.168 140.289 172.443C140.289 172.639 140.094 172.794 139.699 172.794C139.342 172.779 138.984 172.82 138.639 172.914C137.699 173.189 137.424 173.78 137.384 175.668L136.986 196.747C136.986 197.493 136.711 197.809 136.436 197.809C136.166 197.79 135.902 197.717 135.66 197.595C135.417 197.473 135.202 197.305 135.026 197.098C132.866 195.103 128.547 190.965 124.933 187.465C121.164 183.849 117.514 179.794 116.845 179.208H116.729L117.152 192.852Z" fill="#20BFD4"/>
<path d="M153.704 186.008C153.704 191.044 153.704 193.758 154.529 194.464C155.194 195.055 156.218 195.33 159.278 195.33C161.358 195.33 162.892 195.291 163.872 194.229C164.415 193.547 164.767 192.733 164.892 191.87C164.932 191.515 165.012 191.28 165.326 191.28C165.641 191.28 165.641 191.475 165.641 191.946C165.556 193.467 165.359 194.98 165.052 196.472C164.816 197.334 164.617 197.533 162.577 197.533C159.748 197.533 157.708 197.454 155.943 197.414C154.178 197.374 152.756 197.298 151.162 197.298C150.732 197.298 149.867 197.298 148.927 197.334C147.987 197.37 147.002 197.414 146.218 197.414C145.708 197.414 145.421 197.298 145.421 197.015C145.421 196.815 145.576 196.699 146.046 196.699C146.522 196.7 146.997 196.646 147.461 196.54C148.258 196.384 148.441 195.518 148.6 194.377C148.795 192.724 148.795 189.62 148.795 185.996V179.088C148.795 173.102 148.795 172.008 148.716 170.751C148.64 169.414 148.317 168.784 147.03 168.508C146.604 168.423 146.17 168.384 145.735 168.393C145.301 168.393 145.066 168.313 145.066 168.037C145.066 167.762 145.341 167.686 145.931 167.686C147.775 167.686 150.25 167.802 151.31 167.802C152.25 167.802 155.119 167.686 156.649 167.686C157.198 167.686 157.473 167.762 157.473 168.037C157.473 168.313 157.238 168.393 156.768 168.393C156.255 168.395 155.742 168.433 155.234 168.508C154.174 168.708 153.859 169.374 153.784 170.751C153.704 172.008 153.704 173.11 153.704 179.088V186.008Z" fill="#306869"/>
<path d="M171.761 181.802C171.761 176.729 171.761 175.784 171.725 174.722C171.646 173.585 171.291 173.19 170.53 172.954C170.122 172.84 169.699 172.786 169.275 172.794C168.92 172.794 168.725 172.719 168.725 172.395C168.725 172.2 169 172.12 169.55 172.12C170.845 172.12 173.2 172.2 174.18 172.2C175.044 172.2 177.284 172.12 178.618 172.12C179.049 172.12 179.324 172.2 179.324 172.395C179.324 172.711 179.128 172.794 178.774 172.794C178.43 172.797 178.088 172.837 177.754 172.914C176.813 173.074 176.558 173.545 176.459 174.722C176.379 175.784 176.379 176.717 176.379 181.802V187.7C176.379 190.925 176.379 193.598 176.539 195.015C176.654 195.921 176.889 196.432 177.913 196.588C178.498 196.669 179.088 196.709 179.678 196.707C180.077 196.707 180.228 196.903 180.228 197.059C180.228 197.298 179.953 197.414 179.559 197.414C177.284 197.414 174.929 197.298 173.981 197.298C173.184 197.298 170.841 197.414 169.466 197.414C169.036 197.414 168.797 197.298 168.797 197.059C168.797 196.903 168.916 196.707 169.347 196.707C169.757 196.717 170.166 196.677 170.566 196.588C171.271 196.432 171.466 195.957 171.586 194.991C171.741 193.614 171.741 190.941 171.741 187.716L171.761 181.802Z" fill="#306869"/>
<path d="M192.376 187.82C192.376 191.044 192.416 193.407 192.571 194.82C192.691 195.801 192.926 196.416 193.946 196.588C194.506 196.667 195.07 196.707 195.635 196.707C196.066 196.707 196.221 196.903 196.221 197.058C196.221 197.298 195.986 197.414 195.476 197.414C193.277 197.414 190.842 197.298 189.942 197.298C189.041 197.298 186.838 197.414 185.559 197.414C185.089 197.414 184.854 197.334 184.854 197.058C184.854 196.903 184.969 196.707 185.364 196.707C185.772 196.717 186.18 196.677 186.579 196.588C187.288 196.432 187.483 195.789 187.603 194.82C187.758 193.403 187.758 190.925 187.758 187.7V181.802C187.758 176.729 187.758 175.783 187.718 174.722C187.639 173.585 187.32 173.189 186.228 172.914C185.776 172.824 185.315 172.784 184.854 172.794C184.539 172.794 184.264 172.679 184.264 172.443C184.264 172.208 184.539 172.128 185.089 172.128C186.854 172.128 189.053 172.208 190.033 172.208C191.372 172.208 199.026 172.244 199.851 172.208C200.326 172.19 200.798 172.137 201.265 172.048C201.46 172.008 201.616 171.853 201.815 171.853C201.931 171.853 202.05 172.008 202.05 172.168C202.05 172.403 201.891 172.794 201.775 173.66C201.735 174.016 201.656 175.983 201.616 176.374C201.58 176.649 201.5 177.045 201.265 177.045C201.03 177.045 200.831 176.885 200.831 176.494C200.868 176.064 200.801 175.631 200.636 175.233C200.401 174.762 199.731 174.251 198.436 174.211L192.707 174.095C192.508 174.095 192.392 174.171 192.392 174.566V182.668C192.392 182.863 192.432 182.983 192.627 182.983L197.456 182.943C198.046 182.943 198.516 182.943 199.026 182.903C199.656 182.863 200.166 182.747 200.48 182.312C200.676 182.117 200.755 181.957 200.95 181.957C201.07 181.957 201.146 182.077 201.146 182.273C201.146 182.468 200.99 183.374 200.871 184.436C200.791 185.106 200.755 186.638 200.755 186.874C200.755 187.109 200.715 187.62 200.357 187.62C200.162 187.62 200.042 187.385 200.042 187.149C200.024 186.798 199.944 186.452 199.807 186.128C199.691 185.781 199.469 185.479 199.174 185.264C198.878 185.05 198.523 184.933 198.157 184.93C197.297 184.851 193.213 184.811 192.623 184.811C192.464 184.811 192.388 184.851 192.388 185.086L192.376 187.82Z" fill="#306869"/>
<path d="M209.238 181.802C209.238 176.729 209.238 175.783 209.198 174.722C209.118 173.585 208.8 173.229 207.708 172.914C207.256 172.824 206.795 172.784 206.333 172.794C205.979 172.794 205.744 172.679 205.744 172.443C205.744 172.208 206.019 172.128 206.541 172.128C208.345 172.128 210.545 172.208 211.525 172.208C212.625 172.208 220.291 172.244 220.948 172.208C221.431 172.16 221.911 172.088 222.386 171.992C222.566 171.929 222.75 171.877 222.936 171.837C223.131 171.837 223.171 171.992 223.171 172.152C223.027 172.865 222.935 173.588 222.896 174.315C222.856 174.666 222.781 176.123 222.701 176.518C222.661 176.673 222.582 177.068 222.303 177.068C222.024 177.068 222.028 176.909 222.028 176.634C222.028 176.223 221.948 175.816 221.793 175.436C221.518 174.846 221.243 174.375 219.518 174.215C218.928 174.139 214.804 174.059 214.099 174.059C213.939 174.059 213.864 174.175 213.864 174.375V182.632C213.864 182.827 213.9 182.987 214.099 182.987C214.896 182.987 219.358 182.987 220.143 182.907C220.928 182.827 221.478 182.751 221.793 182.396C222.068 182.161 222.191 181.961 222.342 181.961C222.494 181.961 222.617 182.121 222.617 182.316C222.617 182.512 222.538 183.063 222.342 184.755C222.263 185.425 222.187 186.75 222.187 186.998C222.187 187.245 222.147 187.744 221.832 187.744C221.597 187.744 221.518 187.624 221.518 187.469C221.478 187.113 221.478 186.67 221.402 186.247C221.203 185.581 220.773 185.05 219.478 184.95C218.848 184.875 214.924 184.795 214.059 184.795C213.9 184.795 213.864 184.95 213.864 185.15V187.824C213.864 188.965 213.824 191.815 213.864 192.776C213.939 195.059 214.999 195.57 218.533 195.57C219.438 195.57 220.892 195.53 221.793 195.139C222.693 194.748 223.052 194.037 223.287 192.661C223.362 192.305 223.442 192.15 223.685 192.15C223.928 192.15 224 192.581 224 192.948C223.944 194.191 223.787 195.427 223.53 196.643C223.295 197.509 222.98 197.509 221.685 197.509C219.091 197.509 217.011 197.47 215.31 197.39C213.609 197.31 212.326 197.314 211.306 197.314C210.907 197.314 210.166 197.35 209.342 197.35C208.517 197.35 207.656 197.43 206.951 197.43C206.521 197.43 206.286 197.314 206.286 197.074C206.286 196.919 206.401 196.723 206.835 196.723C207.237 196.732 207.638 196.691 208.031 196.603C208.74 196.448 208.935 195.805 209.051 194.836C209.21 193.419 209.21 190.785 209.21 187.716L209.238 181.802Z" fill="#306869"/>
</svg>
